<?xml version="1.0" encoding="UTF-8"?>
<!DOCTYPE svg PUBLIC "-//W3C//DTD SVG 1.1//EN" "http://www.w3.org/Graphics/SVG/1.1/DTD/svg11.dtd">
<!-- Creator: CorelDRAW 2020 (64-Bit) -->
<svg xmlns="http://www.w3.org/2000/svg" xml:space="preserve" width="24px" height="24px" version="1.1" style="shape-rendering:geometricPrecision; text-rendering:geometricPrecision; image-rendering:optimizeQuality; fill-rule:evenodd; clip-rule:evenodd"
viewBox="0 0 30.83 30.83"
 xmlns:xlink="http://www.w3.org/1999/xlink"
 xmlns:xodm="http://www.corel.com/coreldraw/odm/2003">
 <defs>
  <style type="text/css">
   <![CDATA[
    .fil0 {fill:#77B3D4;fill-rule:nonzero}
    .fil2 {fill:#E0E0D1;fill-rule:nonzero}
    .fil4 {fill:white;fill-rule:nonzero}
    .fil1 {fill:#231F20;fill-rule:nonzero;fill-opacity:0.039216}
    .fil3 {fill:#231F20;fill-rule:nonzero;fill-opacity:0.200000}
   ]]>
  </style>
 </defs>
 <g id="Layer_x0020_1">
  <metadata id="CorelCorpID_0Corel-Layer"/>
  <g id="Circle-icons-mail.svg">
   <g id="Layer_1">
    <g>
     <circle class="fil0" cx="15.42" cy="15.42" r="15.42"/>
    </g>
    <g>
     <g>
      <path class="fil1" d="M25.05 21.2c0,1.06 -0.86,1.93 -1.92,1.93l-15.42 0c-1.06,0 -1.93,-0.87 -1.93,-1.93l0 -9.64c0,-1.06 0.87,-1.92 1.93,-1.92l15.42 0c1.06,0 1.92,0.86 1.92,1.92l0 9.64z"/>
     </g>
     <g>
      <path class="fil2" d="M25.05 20.24c0,1.06 -0.86,1.92 -1.92,1.92l-15.42 0c-1.06,0 -1.93,-0.86 -1.93,-1.92l0 -9.64c0,-1.06 0.87,-1.93 1.93,-1.93l15.42 0c1.06,0 1.92,0.87 1.92,1.93l0 9.64z"/>
     </g>
     <g>
      <g>
       <path class="fil3" d="M17.1 14.55c-0.91,-1.01 -2.45,-1.01 -3.37,0l-7.47 6.26c-0.09,0.1 -0.14,0.2 -0.24,0.29 0.34,0.63 0.97,1.06 1.64,1.06l15.42 0c0.72,0 1.3,-0.43 1.64,-1.06 -0.05,-0.09 -0.15,-0.19 -0.24,-0.29l-7.38 -6.26z"/>
      </g>
     </g>
     <g>
      <g>
       <path class="fil2" d="M17.1 15.42c-0.91,-0.92 -2.45,-0.92 -3.37,0l-7.47 5.54c-0.09,0.09 -0.14,0.14 -0.24,0.24 0.34,0.58 0.97,0.91 1.64,0.91l15.42 0c0.72,0 1.3,-0.38 1.64,-0.91 -0.05,-0.1 -0.15,-0.15 -0.24,-0.24l-7.38 -5.54z"/>
      </g>
     </g>
     <g>
      <g>
       <path class="fil1" d="M6.07 9.73c0.34,-0.62 0.96,-1.06 1.64,-1.06l15.42 0c0.72,0 1.3,0.44 1.63,1.06 -0.04,0.1 -0.14,0.19 -0.24,0.29l-7.42 6.26c-0.91,1.02 -2.45,1.02 -3.37,0l-7.66 -6.55z"/>
      </g>
     </g>
     <g>
      <g>
       <path class="fil4" d="M13.73 15.42c0.92,0.91 2.46,0.91 3.37,0l7.47 -5.54c0.1,-0.1 0.15,-0.15 0.24,-0.24 -0.33,-0.58 -0.96,-0.92 -1.64,-0.92l-15.46 0c-0.72,0 -1.3,0.39 -1.64,0.92 0.05,0.09 0.15,0.14 0.24,0.24l7.42 5.54z"/>
      </g>
     </g>
    </g>
   </g>
   <g id="Layer_2">
   </g>
  </g>
 </g>
</svg>
