<svg width="24" height="24" xmlns="http://www.w3.org/2000/svg"><g fill="none" fill-rule="evenodd"><path d="M12 24c6.628 0 12-5.373 12-12S18.628 0 12 0 0 5.373 0 12s5.372 12 12 12" fill="#D93174"/><path d="M14.716 5.28H9.284A4.008 4.008 0 0 0 5.28 9.284v5.432a4.007 4.007 0 0 0 4.004 4.003h5.432a4.007 4.007 0 0 0 4.004-4.003V9.284a4.008 4.008 0 0 0-4.004-4.004zm2.652 9.436a2.652 2.652 0 0 1-2.652 2.652H9.284a2.653 2.653 0 0 1-2.652-2.652V9.284a2.652 2.652 0 0 1 2.652-2.652h5.432a2.652 2.652 0 0 1 2.652 2.652v5.432z" fill="#FFF"/><path d="M12 8.442A3.562 3.562 0 0 0 8.442 12 3.561 3.561 0 0 0 12 15.557 3.561 3.561 0 0 0 15.558 12 3.562 3.562 0 0 0 12 8.442m0 5.731a2.174 2.174 0 1 1 0-4.348 2.174 2.174 0 0 1 0 4.348m3.558-4.94a.79.79 0 1 0 0-1.581.79.79 0 0 0 0 1.581" fill="#FFF"/></g></svg>