<?xml version="1.0" encoding="UTF-8"?>
<!DOCTYPE svg PUBLIC "-//W3C//DTD SVG 1.1//EN" "http://www.w3.org/Graphics/SVG/1.1/DTD/svg11.dtd">
<!-- Creator: CorelDRAW 2020 (64-Bit) -->
<svg xmlns="http://www.w3.org/2000/svg" xml:space="preserve" width="24px" height="24px" version="1.1" style="shape-rendering:geometricPrecision; text-rendering:geometricPrecision; image-rendering:optimizeQuality; fill-rule:evenodd; clip-rule:evenodd"
viewBox="0 0 24.01 24.01"
 xmlns:xlink="http://www.w3.org/1999/xlink"
 xmlns:xodm="http://www.corel.com/coreldraw/odm/2003">
 <defs>
  <style type="text/css">
   <![CDATA[
    .fil0 {fill:#0077B5}
   ]]>
  </style>
 </defs>
 <g id="Layer_x0020_1">
  <metadata id="CorelCorpID_0Corel-Layer"/>
  <path class="fil0" d="M12 0c6.63,0 12.01,5.37 12.01,12 0,6.63 -5.37,12.01 -12.01,12.01 -6.62,0 -12,-5.37 -12,-12.01 0,-6.62 5.37,-12 12,-12zm-1.54 9.62l2.46 0 0 1.26 0.03 0c0.35,-0.62 1.19,-1.26 2.44,-1.26 2.6,0 3.08,1.62 3.08,3.72l0 4.29 -2.57 0 0 -3.8c0,-0.9 -0.02,-2.07 -1.34,-2.07 -1.34,0 -1.54,0.99 -1.54,2.01l0 3.86 -2.57 0 0 -8.01 0.01 0zm-1.78 -2.22c0,0.73 -0.6,1.33 -1.34,1.33 -0.74,0 -1.34,-0.59 -1.34,-1.33 0,-0.74 0.6,-1.34 1.34,-1.34 0.73,0 1.34,0.59 1.34,1.34zm-2.67 2.22l2.67 0 0 8.01 -2.67 0 0 -8.01z"/>
 </g>
</svg>
